<svg xmlns="http://www.w3.org/2000/svg" xmlns:xlink="http://www.w3.org/1999/xlink" width="1920" zoomAndPan="magnify" viewBox="0 0 1440 809.999993" height="1080" preserveAspectRatio="xMidYMid meet" version="1.0"><defs><filter x="0%" y="0%" width="100%" height="100%" id="id1"><feColorMatrix values="0 0 0 0 1 0 0 0 0 1 0 0 0 0 1 0 0 0 1 0" color-interpolation-filters="sRGB"/></filter><clipPath id="id2"><path d="M 777.855469 201.214844 L 1320.105469 201.214844 L 1320.105469 743.464844 L 777.855469 743.464844 Z M 777.855469 201.214844 " clip-rule="nonzero"/></clipPath><mask id="id3"><g filter="url(#id1)"><rect x="-144" width="1728" fill="#000000" y="-80.999999" height="971.999992" fill-opacity="0.1569"/></g></mask><clipPath id="id4"><path d="M 0.929688 0 L 1286 0 L 1286 810 L 0.929688 810 Z M 0.929688 0 " clip-rule="nonzero"/></clipPath><clipPath id="id5"><rect x="0" width="1286" y="0" height="810"/></clipPath><clipPath id="id6"><path d="M 245.089844 0 L 1440 0 L 1440 810 L 245.089844 810 Z M 245.089844 0 " clip-rule="nonzero"/></clipPath><mask id="id7"><g filter="url(#id1)"><rect x="-144" width="1728" fill="#000000" y="-80.999999" height="971.999992" fill-opacity="0.1569"/></g></mask><clipPath id="id8"><path d="M 0.660156 0 L 1040 0 L 1040 810 L 0.660156 810 Z M 0.660156 0 " clip-rule="nonzero"/></clipPath><clipPath id="id9"><rect x="0" width="1040" y="0" height="810"/></clipPath><clipPath id="id10"><path d="M 486.480469 0 L 1440 0 L 1440 810 L 486.480469 810 Z M 486.480469 0 " clip-rule="nonzero"/></clipPath><mask id="id11"><g filter="url(#id1)"><rect x="-144" width="1728" fill="#000000" y="-80.999999" height="971.999992" fill-opacity="0.1569"/></g></mask><clipPath id="id12"><path d="M 1.144531 0.5 L 797 0.5 L 797 743 L 1.144531 743 Z M 1.144531 0.5 " clip-rule="nonzero"/></clipPath><clipPath id="id13"><rect x="0" width="797" y="0" height="743"/></clipPath><clipPath id="id14"><path d="M 823.660156 247.019531 L 1274.410156 247.019531 L 1274.410156 697.769531 L 823.660156 697.769531 Z M 823.660156 247.019531 " clip-rule="nonzero"/></clipPath></defs><rect x="-144" width="1728" fill="#ffffff" y="-80.999999" height="971.999992" fill-opacity="1"/><rect x="-144" width="1728" fill="#6f8d56" y="-80.999999" height="971.999992" fill-opacity="1"/><rect x="-144" width="1728" fill="#ffffff" y="-80.999999" height="971.999992" fill-opacity="1"/><rect x="-144" width="1728" fill="#6f8d56" y="-80.999999" height="971.999992" fill-opacity="1"/><g clip-path="url(#id2)"><path fill="#28341e" d="M 1048.980469 201.214844 C 899.183594 201.214844 777.855469 322.542969 777.855469 472.339844 C 777.855469 622.136719 899.183594 743.464844 1048.980469 743.464844 C 1198.777344 743.464844 1320.105469 622.136719 1320.105469 472.339844 C 1320.105469 322.542969 1198.777344 201.214844 1048.980469 201.214844 Z M 1048.980469 689.238281 C 929.144531 689.238281 832.082031 592.175781 832.082031 472.339844 C 832.082031 352.503906 929.144531 255.4375 1048.980469 255.4375 C 1168.820312 255.4375 1265.882812 352.503906 1265.882812 472.339844 C 1265.882812 592.175781 1168.820312 689.238281 1048.980469 689.238281 Z M 1048.980469 689.238281 " fill-opacity="1" fill-rule="nonzero"/></g><g mask="url(#id3)"><g transform="matrix(1, 0, 0, 1, 154, 0.000000000000039746)"><g clip-path="url(#id5)"><g clip-path="url(#id4)"><path fill="#28341e" d="M 969.179688 -484.394531 C 434.21875 -484.394531 0.929688 -51.101562 0.929688 483.855469 C 0.929688 1018.816406 434.21875 1452.105469 969.179688 1452.105469 C 1504.136719 1452.105469 1937.429688 1018.816406 1937.429688 483.855469 C 1937.429688 -51.101562 1504.136719 -484.394531 969.179688 -484.394531 Z M 969.179688 1258.457031 C 541.210938 1258.457031 194.578125 911.824219 194.578125 483.855469 C 194.578125 55.890625 541.210938 -290.742188 969.179688 -290.742188 C 1397.144531 -290.742188 1743.777344 55.890625 1743.777344 483.855469 C 1743.777344 911.824219 1397.144531 1258.457031 969.179688 1258.457031 Z M 969.179688 1258.457031 " fill-opacity="1" fill-rule="nonzero"/></g></g></g></g><g clip-path="url(#id6)"><path fill="#6f8d56" d="M 1116.214844 -409.109375 C 635.105469 -409.109375 245.089844 -19.089844 245.089844 462.015625 C 245.089844 943.125 635.105469 1333.140625 1116.214844 1333.140625 C 1597.324219 1333.140625 1987.339844 943.125 1987.339844 462.015625 C 1987.339844 -19.089844 1597.324219 -409.109375 1116.214844 -409.109375 " fill-opacity="1" fill-rule="nonzero"/></g><g mask="url(#id7)"><g transform="matrix(1, 0, 0, 1, 400, 0.000000000000039746)"><g clip-path="url(#id9)"><g clip-path="url(#id8)"><path fill="#28341e" d="M 649.035156 -175.980469 C 290.808594 -175.980469 0.660156 114.164062 0.660156 472.394531 C 0.660156 830.621094 290.808594 1120.769531 649.035156 1120.769531 C 1007.261719 1120.769531 1297.410156 830.621094 1297.410156 472.394531 C 1297.410156 114.164062 1007.261719 -175.980469 649.035156 -175.980469 Z M 649.035156 991.09375 C 362.453125 991.09375 130.335938 758.972656 130.335938 472.394531 C 130.335938 185.8125 362.453125 -46.308594 649.035156 -46.308594 C 935.617188 -46.308594 1167.734375 185.8125 1167.734375 472.394531 C 1167.734375 758.972656 935.617188 991.09375 649.035156 991.09375 Z M 649.035156 991.09375 " fill-opacity="1" fill-rule="nonzero"/></g></g></g></g><g clip-path="url(#id10)"><path fill="#6f8d56" d="M 1048.980469 -90.160156 C 738.320312 -90.160156 486.480469 161.679688 486.480469 472.339844 C 486.480469 783 738.320312 1034.839844 1048.980469 1034.839844 C 1359.640625 1034.839844 1611.480469 783 1611.480469 472.339844 C 1611.480469 161.679688 1359.640625 -90.160156 1048.980469 -90.160156 " fill-opacity="1" fill-rule="nonzero"/></g><g mask="url(#id11)"><g transform="matrix(1, 0, 0, 1, 643, 67)"><g clip-path="url(#id13)"><g clip-path="url(#id12)"><path fill="#28341e" d="M 406.144531 0.5 C 182.378906 0.5 1.144531 181.738281 1.144531 405.5 C 1.144531 629.261719 182.378906 810.5 406.144531 810.5 C 629.90625 810.5 811.144531 629.261719 811.144531 405.5 C 811.144531 181.738281 629.90625 0.5 406.144531 0.5 Z M 406.144531 729.5 C 227.132812 729.5 82.144531 584.511719 82.144531 405.5 C 82.144531 226.488281 227.132812 81.5 406.144531 81.5 C 585.152344 81.5 730.144531 226.488281 730.144531 405.5 C 730.144531 584.511719 585.152344 729.5 406.144531 729.5 Z M 406.144531 729.5 " fill-opacity="1" fill-rule="nonzero"/></g></g></g></g><g clip-path="url(#id14)"><path fill="#28341e" d="M 1274.410156 472.394531 C 1274.410156 476.082031 1274.320312 479.765625 1274.140625 483.453125 C 1273.957031 487.136719 1273.6875 490.8125 1273.324219 494.484375 C 1272.964844 498.152344 1272.511719 501.8125 1271.972656 505.460938 C 1271.429688 509.109375 1270.800781 512.742188 1270.078125 516.359375 C 1269.359375 519.980469 1268.550781 523.578125 1267.65625 527.15625 C 1266.761719 530.730469 1265.777344 534.285156 1264.707031 537.816406 C 1263.636719 541.34375 1262.480469 544.847656 1261.234375 548.320312 C 1259.992188 551.792969 1258.667969 555.230469 1257.253906 558.640625 C 1255.84375 562.046875 1254.347656 565.417969 1252.773438 568.753906 C 1251.195312 572.085938 1249.539062 575.382812 1247.796875 578.632812 C 1246.058594 581.886719 1244.242188 585.09375 1242.347656 588.257812 C 1240.449219 591.421875 1238.476562 594.539062 1236.429688 597.605469 C 1234.378906 600.671875 1232.253906 603.6875 1230.058594 606.648438 C 1227.859375 609.609375 1225.59375 612.519531 1223.253906 615.371094 C 1220.914062 618.21875 1218.503906 621.011719 1216.027344 623.746094 C 1213.550781 626.476562 1211.007812 629.148438 1208.398438 631.757812 C 1205.792969 634.363281 1203.121094 636.90625 1200.386719 639.382812 C 1197.65625 641.863281 1194.863281 644.269531 1192.011719 646.609375 C 1189.160156 648.949219 1186.253906 651.21875 1183.292969 653.414062 C 1180.328125 655.613281 1177.3125 657.734375 1174.246094 659.785156 C 1171.179688 661.835938 1168.066406 663.808594 1164.902344 665.703125 C 1161.738281 667.597656 1158.53125 669.417969 1155.277344 671.15625 C 1152.023438 672.894531 1148.730469 674.550781 1145.394531 676.128906 C 1142.0625 677.707031 1138.691406 679.199219 1135.28125 680.613281 C 1131.875 682.023438 1128.433594 683.351562 1124.960938 684.59375 C 1121.488281 685.835938 1117.988281 686.992188 1114.457031 688.0625 C 1110.929688 689.132812 1107.375 690.117188 1103.796875 691.011719 C 1100.21875 691.910156 1096.621094 692.71875 1093.003906 693.4375 C 1089.386719 694.15625 1085.753906 694.789062 1082.105469 695.328125 C 1078.457031 695.871094 1074.796875 696.320312 1071.125 696.683594 C 1067.457031 697.042969 1063.777344 697.316406 1060.09375 697.496094 C 1056.410156 697.675781 1052.722656 697.769531 1049.035156 697.769531 C 1045.347656 697.769531 1041.660156 697.675781 1037.976562 697.496094 C 1034.292969 697.316406 1030.617188 697.042969 1026.945312 696.683594 C 1023.273438 696.320312 1019.613281 695.871094 1015.964844 695.328125 C 1012.316406 694.789062 1008.683594 694.15625 1005.066406 693.4375 C 1001.449219 692.71875 997.851562 691.910156 994.273438 691.011719 C 990.695312 690.117188 987.140625 689.132812 983.613281 688.0625 C 980.082031 686.992188 976.582031 685.835938 973.109375 684.59375 C 969.636719 683.351562 966.195312 682.023438 962.789062 680.613281 C 959.378906 679.199219 956.007812 677.707031 952.675781 676.128906 C 949.339844 674.550781 946.046875 672.894531 942.792969 671.15625 C 939.542969 669.417969 936.332031 667.597656 933.167969 665.703125 C 930.007812 663.808594 926.890625 661.835938 923.824219 659.785156 C 920.757812 657.734375 917.742188 655.613281 914.78125 653.414062 C 911.816406 651.21875 908.910156 648.949219 906.058594 646.609375 C 903.207031 644.269531 900.414062 641.863281 897.683594 639.382812 C 894.949219 636.90625 892.28125 634.363281 889.671875 631.757812 C 887.0625 629.148438 884.519531 626.476562 882.042969 623.746094 C 879.566406 621.011719 877.160156 618.21875 874.820312 615.371094 C 872.476562 612.519531 870.210938 609.609375 868.011719 606.648438 C 865.816406 603.6875 863.691406 600.671875 861.644531 597.605469 C 859.59375 594.539062 857.621094 591.421875 855.726562 588.257812 C 853.828125 585.09375 852.011719 581.886719 850.273438 578.632812 C 848.535156 575.382812 846.875 572.085938 845.300781 568.753906 C 843.722656 565.417969 842.226562 562.046875 840.816406 558.640625 C 839.40625 555.230469 838.078125 551.792969 836.835938 548.320312 C 835.59375 544.847656 834.4375 541.34375 833.363281 537.816406 C 832.292969 534.285156 831.3125 530.730469 830.414062 527.15625 C 829.519531 523.578125 828.710938 519.980469 827.992188 516.359375 C 827.273438 512.742188 826.640625 509.109375 826.101562 505.460938 C 825.558594 501.8125 825.105469 498.152344 824.746094 494.484375 C 824.382812 490.8125 824.113281 487.136719 823.933594 483.453125 C 823.75 479.765625 823.660156 476.082031 823.660156 472.394531 C 823.660156 468.703125 823.75 465.019531 823.933594 461.335938 C 824.113281 457.648438 824.382812 453.972656 824.746094 450.300781 C 825.105469 446.632812 825.558594 442.972656 826.101562 439.324219 C 826.640625 435.675781 827.273438 432.042969 827.992188 428.425781 C 828.710938 424.808594 829.519531 421.210938 830.414062 417.632812 C 831.3125 414.054688 832.292969 410.5 833.363281 406.96875 C 834.4375 403.441406 835.59375 399.9375 836.835938 396.464844 C 838.078125 392.992188 839.40625 389.554688 840.816406 386.144531 C 842.226562 382.738281 843.722656 379.367188 845.300781 376.03125 C 846.875 372.699219 848.535156 369.40625 850.273438 366.152344 C 852.011719 362.898438 853.828125 359.691406 855.726562 356.527344 C 857.621094 353.363281 859.59375 350.246094 861.644531 347.179688 C 863.691406 344.113281 865.816406 341.101562 868.011719 338.136719 C 870.210938 335.175781 872.476562 332.269531 874.820312 329.417969 C 877.160156 326.566406 879.566406 323.773438 882.042969 321.039062 C 884.519531 318.308594 887.0625 315.636719 889.671875 313.027344 C 892.28125 310.421875 894.949219 307.878906 897.683594 305.402344 C 900.414062 302.925781 903.207031 300.515625 906.058594 298.175781 C 908.910156 295.835938 911.816406 293.566406 914.78125 291.371094 C 917.742188 289.171875 920.757812 287.050781 923.824219 285 C 926.890625 282.953125 930.007812 280.976562 933.167969 279.082031 C 936.332031 277.1875 939.542969 275.367188 942.792969 273.628906 C 946.046875 271.890625 949.339844 270.234375 952.675781 268.65625 C 956.007812 267.078125 959.378906 265.585938 962.789062 264.171875 C 966.195312 262.761719 969.636719 261.433594 973.109375 260.191406 C 976.582031 258.949219 980.082031 257.792969 983.613281 256.722656 C 987.140625 255.652344 990.695312 254.667969 994.273438 253.773438 C 997.851562 252.875 1001.449219 252.066406 1005.066406 251.347656 C 1008.683594 250.628906 1012.316406 250 1015.964844 249.457031 C 1019.613281 248.914062 1023.273438 248.464844 1026.945312 248.101562 C 1030.617188 247.742188 1034.292969 247.46875 1037.976562 247.289062 C 1041.660156 247.109375 1045.347656 247.019531 1049.035156 247.019531 C 1052.722656 247.019531 1056.410156 247.109375 1060.09375 247.289062 C 1063.777344 247.46875 1067.457031 247.742188 1071.125 248.101562 C 1074.796875 248.464844 1078.457031 248.914062 1082.105469 249.457031 C 1085.753906 250 1089.386719 250.628906 1093.003906 251.347656 C 1096.621094 252.066406 1100.21875 252.875 1103.796875 253.773438 C 1107.375 254.667969 1110.929688 255.652344 1114.457031 256.722656 C 1117.988281 257.792969 1121.488281 258.949219 1124.960938 260.191406 C 1128.433594 261.433594 1131.875 262.761719 1135.28125 264.171875 C 1138.691406 265.585938 1142.0625 267.078125 1145.394531 268.65625 C 1148.730469 270.234375 1152.023438 271.890625 1155.277344 273.628906 C 1158.53125 275.367188 1161.738281 277.1875 1164.902344 279.082031 C 1168.066406 280.976562 1171.179688 282.953125 1174.246094 285 C 1177.3125 287.050781 1180.328125 289.171875 1183.292969 291.371094 C 1186.253906 293.566406 1189.160156 295.835938 1192.011719 298.175781 C 1194.863281 300.515625 1197.65625 302.925781 1200.386719 305.402344 C 1203.121094 307.878906 1205.792969 310.421875 1208.398438 313.027344 C 1211.007812 315.636719 1213.550781 318.308594 1216.027344 321.039062 C 1218.503906 323.773438 1220.914062 326.566406 1223.253906 329.417969 C 1225.59375 332.269531 1227.859375 335.175781 1230.058594 338.136719 C 1232.253906 341.101562 1234.378906 344.113281 1236.429688 347.179688 C 1238.476562 350.246094 1240.449219 353.363281 1242.347656 356.527344 C 1244.242188 359.691406 1246.058594 362.898438 1247.796875 366.152344 C 1249.539062 369.40625 1251.195312 372.699219 1252.773438 376.03125 C 1254.347656 379.367188 1255.84375 382.738281 1257.253906 386.144531 C 1258.667969 389.554688 1259.992188 392.992188 1261.234375 396.464844 C 1262.480469 399.9375 1263.636719 403.441406 1264.707031 406.96875 C 1265.777344 410.5 1266.761719 414.054688 1267.65625 417.632812 C 1268.550781 421.210938 1269.359375 424.808594 1270.078125 428.425781 C 1270.800781 432.042969 1271.429688 435.675781 1271.972656 439.324219 C 1272.511719 442.972656 1272.964844 446.632812 1273.324219 450.300781 C 1273.6875 453.972656 1273.957031 457.648438 1274.140625 461.335938 C 1274.320312 465.019531 1274.410156 468.703125 1274.410156 472.394531 Z M 1274.410156 472.394531 " fill-opacity="1" fill-rule="nonzero"/></g></svg>